<?xml version="1.0" encoding="UTF-8" standalone="no"?><!DOCTYPE svg PUBLIC "-//W3C//DTD SVG 1.1//EN" "http://www.w3.org/Graphics/SVG/1.1/DTD/svg11.dtd"><svg width="100%" height="100%" viewBox="0 0 3738 1507" version="1.1" xmlns="http://www.w3.org/2000/svg" xmlns:xlink="http://www.w3.org/1999/xlink" xml:space="preserve" xmlns:serif="http://www.serif.com/" style="fill-rule:evenodd;clip-rule:evenodd;stroke-linecap:round;stroke-linejoin:round;stroke-miterlimit:1.5;"><path d="M443.187,818.456c-0,54.871 -27.436,82.307 -82.306,82.307l-280.877,-0c-53.336,-0 -80.004,-27.436 -80.004,-82.307l-0,-735.574c-0,-55.255 26.668,-82.882 80.004,-82.882l280.877,0c54.87,0 82.306,27.627 82.306,82.882l-0,176.314c-0,9.108 -3.619,17.844 -10.059,24.284c-6.441,6.441 -15.176,10.059 -24.285,10.059c-20.079,0 -45.341,0 -65.42,0c-9.108,0 -17.844,-3.618 -24.285,-10.059c-6.44,-6.44 -10.058,-15.176 -10.058,-24.284c-0,-31.44 -0,-77.724 -0,-109.164c-0,-9.108 -3.619,-17.843 -10.059,-24.284c-6.441,-6.441 -15.176,-10.059 -24.285,-10.059c-30.591,-0 -75.119,-0 -105.71,-0c-18.967,0 -34.343,15.376 -34.343,34.343c-0,114.992 -0,485.707 -0,600.698c-0,18.968 15.376,34.344 34.343,34.344c30.591,-0 75.119,-0 105.71,-0c18.968,-0 34.344,-15.376 34.344,-34.344c-0,-34.217 -0,-86.457 -0,-120.675c-0,-18.967 15.376,-34.343 34.343,-34.343c20.079,-0 45.341,-0 65.42,-0c9.109,-0 17.844,3.618 24.285,10.059c6.44,6.441 10.059,15.176 10.059,24.284c-0,62.491 -0,188.401 -0,188.401Z" style="fill:#6d6d6d;fill-rule:nonzero;"/><path d="M916.878,864.147c0,20.222 -16.393,36.616 -36.615,36.616c-22.58,-0 -50.681,-0 -69.292,-0c-11.124,-0 -20.142,-9.018 -20.142,-20.142c0,-0.002 0,-0.003 0,-0.003c-29.929,4.604 -59.859,9.209 -89.788,13.813c-39.139,5.756 -68.876,8.634 -89.213,8.634c-47.964,-0 -71.946,-23.598 -71.946,-70.795l-0,-209.506c-0,-47.964 24.749,-71.946 74.248,-71.946l141.235,-0c20.222,-0 36.615,-16.394 36.615,-36.616c0,-18.76 0,-41.54 0,-60.3c0,-20.222 -16.393,-36.616 -36.615,-36.616c-16.61,0 -36.208,0 -52.818,0c-20.222,0 -36.616,16.393 -36.616,36.616c0,3.204 0,6.446 0,9.65c0,20.223 -16.393,36.616 -36.615,36.616c-14.582,-0 -31.33,-0 -45.912,-0c-9.711,-0 -19.024,-3.858 -25.891,-10.725c-6.866,-6.866 -10.724,-16.18 -10.724,-25.891c-0,-31.589 -0,-72.166 -0,-72.166c-0,-47.964 24.749,-71.946 74.248,-71.946l222.744,-0c48.732,-0 73.097,23.982 73.097,71.946c0,-0 0,355.984 0,472.761Zm-160.176,-66.849c19.688,-0.719 35.278,-16.889 35.278,-36.591c0,-25.085 0,-58.685 0,-84.061c0,-20.222 -16.393,-36.615 -36.615,-36.615c-16.61,-0 -36.208,-0 -52.818,-0c-20.223,-0 -36.616,16.393 -36.616,36.615c0,25.704 0,59.991 0,85.99c0,9.943 4.044,19.459 11.202,26.36c7.158,6.901 16.814,10.594 26.75,10.232c16.77,-0.613 36.37,-1.329 52.819,-1.93Z" style="fill:#6d6d6d;fill-rule:nonzero;"/><path d="M1377.91,539.51c-0,6.052 -2.404,11.856 -6.684,16.135c-4.279,4.28 -10.084,6.684 -16.136,6.684c-23.875,0 -61.139,0 -85.015,0c-6.052,0 -11.856,-2.404 -16.135,-6.684c-4.28,-4.279 -6.684,-10.083 -6.684,-16.135c-0,-24.243 -0,-62.372 -0,-86.808c0,-6.139 -2.474,-12.02 -6.863,-16.313c-4.389,-4.293 -10.323,-6.636 -16.461,-6.5c-17.493,0.386 -41.294,0.912 -58.539,1.293c-12.403,0.274 -22.315,10.408 -22.315,22.814c0,78.911 0,344.256 0,423.947c0,12.603 -10.216,22.82 -22.819,22.82c-24.144,-0 -62.022,-0 -86.166,-0c-12.603,-0 -22.82,-10.217 -22.82,-22.82c0,-92.977 0,-442.706 0,-535.684c0,-12.603 10.217,-22.819 22.82,-22.819c24.66,-0 63.646,-0 87.694,-0c5.647,-0 11.062,2.243 15.055,6.236c3.993,3.993 6.236,9.409 6.236,15.055c0,0.003 0,0.005 0,0.005c27.244,-4.989 54.296,-9.977 81.155,-14.965c32.616,-5.756 59.859,-8.634 81.731,-8.634c47.964,0 71.946,23.599 71.946,70.795l-0,151.578Z" style="fill:#6d6d6d;fill-rule:nonzero;"/><path d="M1837.79,888.062c-0,3.368 -1.338,6.599 -3.72,8.981c-2.382,2.381 -5.612,3.72 -8.981,3.72c-25.088,-0 -80.739,-0 -105.828,-0c-7.014,-0 -12.7,-5.687 -12.7,-12.701c-0,-4.023 -0,-7.444 -0,-7.444c-89.021,15.732 -138.904,23.598 -149.648,23.598c-32.999,-0 -58.9,-9.689 -77.701,-29.066c-18.802,-19.378 -28.203,-45.758 -28.203,-79.141l-0,-359.729c-0,-47.197 16.883,-80.004 50.65,-98.422c24.557,-13.814 61.777,-20.721 111.66,-20.721c11.127,0 27.243,0.384 48.347,1.152c21.104,0.767 36.069,1.151 44.895,1.151l-0,-306.739c-0,-3.369 1.338,-6.599 3.72,-8.981c2.381,-2.382 5.612,-3.72 8.98,-3.72c25.089,0 80.74,0 105.828,0c3.369,-0 6.599,1.338 8.981,3.72c2.382,2.382 3.72,5.612 3.72,8.981c-0,101.101 -0,774.259 -0,875.361Zm-131.229,-100.686l-0,-358.003l-81.155,0c-29.162,0 -43.743,14.581 -43.743,43.743l-0,277.999c-0,28.395 13.813,42.592 41.44,42.592c6.523,0 34.343,-2.11 83.458,-6.331Z" style="fill:#6d6d6d;fill-rule:nonzero;"/><path d="M2294.21,879.835c-0,11.558 -9.37,20.928 -20.928,20.928c-62.821,-0 -249.298,-0 -312.119,-0c-11.558,-0 -20.927,-9.37 -20.927,-20.928c-0,-121.71 -0,-737.197 -0,-858.908c-0,-11.557 9.369,-20.927 20.927,-20.927c25.279,0 67.549,0 92.828,0c11.558,0 20.928,9.37 20.928,20.927c-0,110.777 -0,627.838 -0,738.615c-0,5.55 2.204,10.873 6.129,14.798c3.925,3.924 9.248,6.129 14.798,6.129c41.879,0 135.557,0 177.436,0c5.55,0 10.873,2.205 14.798,6.13c3.925,3.924 6.13,9.247 6.13,14.797c-0,22.007 -0,56.433 -0,78.439Z" style="fill:#6d6d6d;fill-rule:nonzero;"/><path d="M2750.64,828.817c0,47.964 -24.365,71.946 -73.097,71.946l-235.982,-0c-49.499,-0 -74.248,-23.982 -74.248,-71.946l-0,-437.431c-0,-47.964 24.749,-71.946 74.248,-71.946l235.982,-0c48.732,-0 73.097,23.982 73.097,71.946l0,437.431Zm-145.304,-37.412c9.045,-0 16.377,-7.332 16.377,-16.377c0,-60.227 0,-269.051 0,-329.278c0,-9.045 -7.332,-16.377 -16.377,-16.377c-23.933,0 -68.211,0 -92.144,0c-9.045,0 -16.377,7.332 -16.377,16.377c0,60.227 0,269.051 0,329.278c0,9.045 7.332,16.377 16.377,16.377c23.933,-0 68.211,-0 92.144,-0Z" style="fill:#6d6d6d;fill-rule:nonzero;"/><path d="M3212.24,532.107c0,16.691 -13.531,30.222 -30.222,30.222c-21.089,0 -49.121,0 -70.209,0c-8.016,0 -15.703,-3.184 -21.371,-8.852c-5.667,-5.668 -8.852,-13.355 -8.852,-21.37c0,-21.472 0,-50.214 0,-71.836c0,-8.132 -3.276,-15.92 -9.089,-21.606c-5.813,-5.685 -13.671,-8.789 -21.8,-8.609c-13.831,0.305 -30.064,0.664 -43.734,0.966c-16.427,0.363 -29.554,13.784 -29.554,30.215c-0,84.145 -0,324.348 -0,409.303c-0,8.016 -3.184,15.703 -8.852,21.371c-5.668,5.667 -13.355,8.852 -21.37,8.852l-71.361,-0c-16.691,-0 -30.222,-13.531 -30.222,-30.223c-0,-100.184 -0,-420.694 -0,-520.878c-0,-16.691 13.531,-30.222 30.222,-30.222c24.541,-0 58.531,-0 80.291,-0c5.647,-0 11.063,2.243 15.056,6.236c3.993,3.993 6.236,9.409 6.236,15.055c-0,0.003 -0,0.005 -0,0.005c27.243,-4.989 54.295,-9.977 81.155,-14.965c32.615,-5.756 59.859,-8.634 81.73,-8.634c47.964,0 71.946,23.599 71.946,70.795c0,0 0,94.249 0,144.175Z" style="fill:#6d6d6d;fill-rule:nonzero;"/><path d="M3662.33,828.817c-0,47.964 -24.75,71.946 -74.248,71.946l-227.349,-0c-49.499,-0 -74.249,-23.982 -74.249,-71.946l0,-437.431c0,-47.964 24.75,-71.946 74.249,-71.946l227.349,-0c49.498,-0 74.248,23.982 74.248,71.946l-0,213.535l-36.261,36.261l-183.313,-0c-8.016,-0 -15.703,3.184 -21.371,8.852c-5.667,5.667 -8.851,13.355 -8.851,21.37c-0,29.214 -0,73.227 -0,102.441c-0,16.691 13.53,30.222 30.222,30.222c19.238,0 44.064,0 63.302,0c16.692,0 30.223,-13.531 30.223,-30.222c-0,-11.546 -0,-24.705 -0,-36.251c-0,-8.015 3.184,-15.702 8.851,-21.37c5.668,-5.668 13.355,-8.852 21.371,-8.852c19.86,0 45.744,0 65.604,0c8.016,0 15.703,3.184 21.371,8.852c5.668,5.668 8.852,13.355 8.852,21.37c-0,35.969 -0,91.223 -0,91.223Zm-156.272,-273.395c16.692,0 30.223,-13.531 30.223,-30.222c-0,-23.344 -0,-55.499 -0,-78.843c-0,-16.691 -13.531,-30.222 -30.223,-30.222c-19.238,0 -44.064,0 -63.302,0c-16.692,0 -30.222,13.531 -30.222,30.222c-0,23.344 -0,55.499 -0,78.843c-0,16.691 13.53,30.222 30.222,30.222c19.238,0 44.064,0 63.302,0Z" style="fill:#6d6d6d;fill-rule:nonzero;"/><path d="M679.102,1373.49c0,25.361 -6.569,48.148 -19.709,68.36c-13.139,20.213 -32.369,36.039 -57.689,47.48c-25.321,11.441 -55.34,17.162 -90.059,17.162c-41.625,-0 -75.961,-7.818 -103.007,-23.454c-19.182,-11.251 -34.767,-26.267 -46.756,-45.049c-11.989,-18.782 -17.983,-37.04 -17.983,-54.774c-0,-10.297 3.597,-19.116 10.79,-26.457c7.193,-7.342 16.352,-11.012 27.478,-11.012c9.015,-0 16.64,2.86 22.874,8.581c6.234,5.72 11.557,14.205 15.969,25.456c5.371,13.348 11.174,24.503 17.408,33.465c6.234,8.962 15.01,16.351 26.327,22.167c11.317,5.815 26.183,8.723 44.598,8.723c25.32,0 45.892,-5.863 61.717,-17.59c15.826,-11.727 23.738,-26.362 23.738,-43.905c0,-13.92 -4.268,-25.218 -12.804,-33.894c-8.536,-8.676 -19.565,-15.302 -33.089,-19.879c-13.523,-4.576 -31.602,-9.439 -54.236,-14.587c-30.308,-7.055 -55.676,-15.302 -76.105,-24.741c-20.428,-9.439 -36.637,-22.31 -48.626,-38.614c-11.988,-16.303 -17.983,-36.563 -17.983,-60.78c0,-23.073 6.33,-43.571 18.99,-61.495c12.66,-17.925 30.979,-31.701 54.957,-41.331c23.977,-9.629 52.174,-14.444 84.592,-14.444c25.895,-0 48.29,3.194 67.184,9.582c18.894,6.388 34.576,14.873 47.044,25.456c12.468,10.583 21.579,21.69 27.334,33.322c5.755,11.632 8.632,22.977 8.632,34.037c-0,10.106 -3.597,19.211 -10.79,27.315c-7.193,8.104 -16.161,12.156 -26.903,12.156c-9.782,0 -17.215,-2.431 -22.298,-7.293c-5.084,-4.863 -10.598,-12.824 -16.545,-23.883c-7.673,-15.827 -16.88,-28.174 -27.622,-37.041c-10.742,-8.866 -28.005,-13.3 -51.791,-13.3c-22.059,0 -39.85,4.815 -53.374,14.444c-13.523,9.63 -20.284,21.214 -20.284,34.752c-0,8.391 2.301,15.636 6.905,21.738c4.604,6.102 10.934,11.346 18.99,15.732c8.057,4.385 16.209,7.818 24.457,10.297c8.248,2.479 21.867,6.102 40.858,10.869c23.785,5.529 45.317,11.631 64.595,18.305c19.277,6.674 35.678,14.778 49.201,24.312c13.523,9.534 24.073,21.595 31.65,36.182c7.577,14.588 11.365,32.464 11.365,53.63Z" style="fill:#6d6d6d;fill-rule:nonzero;"/><path d="M1172.84,1150.11l-93.224,-0l0,304.616c0,17.543 -3.932,30.557 -11.796,39.043c-7.865,8.485 -18.031,12.728 -30.5,12.728c-12.66,-0 -22.97,-4.291 -30.93,-12.871c-7.961,-8.581 -11.941,-21.547 -11.941,-38.9l-0,-304.616l-93.224,-0c-14.578,-0 -25.416,-3.194 -32.514,-9.582c-7.097,-6.388 -10.645,-14.826 -10.645,-25.313c-0,-10.869 3.692,-19.45 11.077,-25.743c7.385,-6.292 18.079,-9.439 32.082,-9.439l271.615,0c14.77,0 25.752,3.242 32.945,9.725c7.193,6.484 10.79,14.969 10.79,25.457c0,10.487 -3.644,18.925 -10.934,25.313c-7.289,6.388 -18.222,9.582 -32.801,9.582Z" style="fill:#6d6d6d;fill-rule:nonzero;"/><path d="M1415.11,1326.01l-0,-201.648c-0,-17.161 3.884,-30.032 11.653,-38.613c7.768,-8.581 17.983,-12.871 30.643,-12.871c13.235,-0 23.737,4.29 31.506,12.871c7.769,8.581 11.653,21.452 11.653,38.613l-0,206.224c-0,23.454 2.637,43.047 7.912,58.779c5.276,15.731 14.627,27.935 28.054,36.611c13.427,8.676 32.226,13.014 56.395,13.014c33.376,-0 56.97,-8.819 70.781,-26.457c13.811,-17.639 20.716,-44.382 20.716,-80.23l0,-207.941c0,-17.352 3.837,-30.271 11.51,-38.756c7.672,-8.485 17.935,-12.728 30.786,-12.728c12.852,-0 23.259,4.243 31.219,12.728c7.96,8.485 11.941,21.404 11.941,38.756l-0,201.648c-0,32.798 -3.213,60.161 -9.639,82.089c-6.426,21.929 -18.559,41.188 -36.398,57.777c-15.345,14.111 -33.184,24.408 -53.517,30.891c-20.333,6.483 -44.119,9.725 -71.357,9.725c-32.417,-0 -60.327,-3.48 -83.729,-10.44c-23.402,-6.96 -42.488,-17.734 -57.258,-32.321c-14.77,-14.587 -25.608,-33.274 -32.513,-56.061c-6.906,-22.786 -10.358,-50.007 -10.358,-81.66Z" style="fill:#6d6d6d;fill-rule:nonzero;"/><path d="M2062.5,1080.03l111.351,0c28.965,0 53.806,2.67 74.522,8.009c20.716,5.339 39.515,15.35 56.395,30.033c43.926,37.374 65.89,94.197 65.89,170.471c-0,25.17 -2.206,48.147 -6.618,68.932c-4.412,20.784 -11.222,39.519 -20.429,56.204c-9.207,16.685 -21.004,31.605 -35.391,44.763c-11.317,10.106 -23.689,18.21 -37.116,24.312c-13.428,6.102 -27.862,10.392 -43.304,12.871c-15.441,2.479 -32.849,3.718 -52.222,3.718l-111.351,0c-15.538,0 -27.238,-2.336 -35.103,-7.007c-7.865,-4.672 -12.996,-11.251 -15.393,-19.736c-2.398,-8.486 -3.597,-19.497 -3.597,-33.036l-0,-307.477c-0,-18.306 4.124,-31.558 12.372,-39.757c8.248,-8.2 21.58,-12.3 39.994,-12.3Zm33.089,67.216l0,284.595l64.739,0c14.195,0 25.32,-0.381 33.377,-1.144c8.056,-0.763 16.4,-2.669 25.032,-5.72c8.632,-3.051 16.113,-7.342 22.443,-12.871c28.581,-24.027 42.871,-65.405 42.871,-124.135c0,-41.379 -6.282,-72.365 -18.846,-92.958c-12.564,-20.594 -28.053,-33.704 -46.468,-39.329c-18.415,-5.625 -40.666,-8.438 -66.753,-8.438l-56.395,0Z" style="fill:#6d6d6d;fill-rule:nonzero;"/><path d="M2596.52,1454.72l0,-330.359c0,-17.161 3.933,-30.032 11.797,-38.613c7.865,-8.581 18.031,-12.871 30.499,-12.871c12.852,-0 23.258,4.243 31.219,12.728c7.96,8.485 11.941,21.404 11.941,38.756l-0,330.359c-0,17.353 -3.981,30.319 -11.941,38.9c-7.961,8.58 -18.367,12.871 -31.219,12.871c-12.276,-0 -22.394,-4.338 -30.355,-13.014c-7.96,-8.676 -11.941,-21.595 -11.941,-38.757Z" style="fill:#6d6d6d;fill-rule:nonzero;"/><path d="M3110.41,1072.88c43.735,-0 81.283,8.819 112.646,26.457c31.362,17.638 55.1,42.713 71.213,75.225c16.112,32.511 24.169,70.696 24.169,114.553c-0,32.416 -4.412,61.877 -13.236,88.382c-8.823,26.505 -22.059,49.482 -39.706,68.932c-17.648,19.449 -39.323,34.323 -65.027,44.62c-25.704,10.296 -55.148,15.445 -88.332,15.445c-32.993,-0 -62.533,-5.292 -88.621,-15.875c-26.087,-10.582 -47.859,-25.503 -65.314,-44.762c-17.456,-19.259 -30.643,-42.428 -39.563,-69.505c-8.919,-27.077 -13.379,-56.346 -13.379,-87.809c-0,-32.226 4.651,-61.782 13.955,-88.668c9.303,-26.886 22.778,-49.768 40.425,-68.646c17.648,-18.878 39.132,-33.322 64.452,-43.333c25.32,-10.011 54.093,-15.016 86.318,-15.016Zm121.422,215.663c-0,-30.7 -4.988,-57.301 -14.962,-79.801c-9.975,-22.501 -24.217,-39.519 -42.728,-51.056c-18.511,-11.536 -39.754,-17.304 -63.732,-17.304c-17.072,-0 -32.849,3.194 -47.331,9.582c-14.482,6.387 -26.951,15.683 -37.405,27.887c-10.454,12.204 -18.702,27.792 -24.744,46.765c-6.043,18.973 -9.064,40.282 -9.064,63.927c0,23.835 3.021,45.382 9.064,64.641c6.042,19.259 14.578,35.229 25.607,47.91c11.03,12.68 23.69,22.167 37.98,28.459c14.291,6.293 29.972,9.439 47.044,9.439c21.867,-0 41.96,-5.435 60.279,-16.303c18.319,-10.869 32.897,-27.65 43.735,-50.341c10.838,-22.691 16.257,-50.626 16.257,-83.805Z" style="fill:#6d6d6d;fill-rule:nonzero;"/><circle cx="2559.58" cy="622.168" r="57.035" style="fill:#7851d2;"/><circle cx="1857.47" cy="1210.12" r="33.285" style="fill:#fff;"/><path d="M3474.7,422.023l11.893,1.203l11.145,3.463l10.056,5.46l8.731,7.204l7.204,8.731l5.46,10.057l3.463,11.144l1.203,11.893l-1.203,11.893l-3.463,11.145l-5.46,10.056l-7.204,8.731l-8.731,7.204l-10.056,5.46l-11.145,3.463l-11.893,1.203l-11.893,-1.203l-11.145,-3.463l-10.056,-5.46l-8.731,-7.204l-7.204,-8.731l-5.46,-10.056l-3.463,-11.145l-1.203,-11.893l1.203,-11.893l3.463,-11.144l5.46,-10.057l7.204,-8.731l8.731,-7.204l10.056,-5.46l11.145,-3.463l11.893,-1.203Zm0,30.085c-16.044,-0 -29.07,13.026 -29.07,29.07c-0,16.044 13.026,29.07 29.07,29.07c16.044,0 29.07,-13.026 29.07,-29.07c0,-16.044 -13.026,-29.07 -29.07,-29.07Z" style="fill:#fff;"/><circle cx="3474.7" cy="481.178" r="29.07" style="fill:#7851d2;"/><circle cx="3641.76" cy="343.269" r="40.879" style="fill:#6d6d6d;"/><circle cx="3533.72" cy="556.922" r="15.484" style="fill:#fff;"/><path d="M3724.68,619.256l-44.624,39.197l44.624,44.624" style="fill:none;stroke:#6d6d6d;stroke-width:25.42px;"/></svg>