<?xml version="1.0" encoding="UTF-8" standalone="no"?><!DOCTYPE svg PUBLIC "-//W3C//DTD SVG 1.1//EN" "http://www.w3.org/Graphics/SVG/1.1/DTD/svg11.dtd"><svg width="100%" height="100%" viewBox="0 0 6202 2050" version="1.1" xmlns="http://www.w3.org/2000/svg" xmlns:xlink="http://www.w3.org/1999/xlink" xml:space="preserve" xmlns:serif="http://www.serif.com/" style="fill-rule:evenodd;clip-rule:evenodd;stroke-linecap:round;stroke-linejoin:round;stroke-miterlimit:1.5;"><circle cx="1182.49" cy="930.322" r="930.322" style="fill:#6d6d6d;"/><circle cx="590.964" cy="1693.72" r="338.8" style="fill:#6d6d6d;"/><circle cx="1330.01" cy="1710.9" r="338.8" style="fill:#6d6d6d;"/><path d="M1954.47,1349.19c18.235,-0 36.136,1.443 53.594,4.223c-11.344,23.823 -130.2,201.782 -135.494,204.419c300.232,256.496 220.604,244.208 404.441,26.25c10.556,32.748 16.259,67.667 16.259,103.907c-0,186.989 -151.812,338.8 -338.8,338.8c-186.989,0 -338.8,-151.811 -338.8,-338.8c0,-186.988 151.811,-338.799 338.8,-338.799Z" style="fill:#6d6d6d;"/><path d="M2126.39,1334.77l149.483,120.541c12.453,10.042 14.41,28.306 4.368,40.759l-136.561,169.349c-10.042,12.453 -28.306,14.411 -40.759,4.369l-149.482,-120.541c-12.453,-10.042 -14.411,-28.306 -4.369,-40.759l136.562,-169.349c10.042,-12.453 28.305,-14.411 40.758,-4.369Z" style="fill:#7851d2;"/><circle cx="1205.41" cy="1174.27" r="111.074" style="fill:#fff;"/><circle cx="996.939" cy="827.845" r="372.387" style="fill:#fff;"/><circle cx="925.287" cy="823.368" r="105.674" style="fill:#6d6d6d;"/><circle cx="870.02" cy="873.775" r="50.407" style="fill:#fff;"/><circle cx="142.827" cy="1883.96" r="142.827" style="fill:#6d6d6d;"/><circle cx="1775.59" cy="199.638" r="142.827" style="fill:#6d6d6d;"/><path d="M2906.88,1172.61c0,54.87 -27.435,82.306 -82.306,82.306l-280.877,-0c-53.336,-0 -80.004,-27.436 -80.004,-82.306l0,-735.575c0,-55.255 26.668,-82.882 80.004,-82.882l280.877,0c54.871,0 82.306,27.627 82.306,82.882l0,176.314c0,9.108 -3.618,17.844 -10.059,24.284c-6.441,6.441 -15.176,10.059 -24.284,10.059c-20.08,0 -45.342,0 -65.421,0c-9.108,0 -17.844,-3.618 -24.284,-10.059c-6.441,-6.44 -10.059,-15.176 -10.059,-24.284c-0,-31.44 -0,-77.724 -0,-109.164c-0,-9.108 -3.618,-17.843 -10.059,-24.284c-6.441,-6.441 -15.176,-10.059 -24.284,-10.059c-30.591,0 -75.12,0 -105.711,0c-18.967,0 -34.343,15.376 -34.343,34.343c0,114.992 0,485.707 0,600.698c0,18.968 15.376,34.344 34.343,34.344c30.591,-0 75.12,-0 105.711,-0c18.967,-0 34.343,-15.376 34.343,-34.344c-0,-34.217 -0,-86.457 -0,-120.675c-0,-18.967 15.376,-34.343 34.343,-34.343c20.079,0 45.341,0 65.421,0c9.108,0 17.843,3.618 24.284,10.059c6.441,6.441 10.059,15.176 10.059,24.284c0,62.492 0,188.402 0,188.402Z" style="fill:#6d6d6d;fill-rule:nonzero;"/><path d="M3380.57,1218.3c-0,20.222 -16.394,36.616 -36.616,36.616c-22.58,-0 -50.681,-0 -69.292,-0c-11.124,-0 -20.141,-9.018 -20.141,-20.142c-0,-0.002 -0,-0.003 -0,-0.003c-29.93,4.604 -59.859,9.209 -89.789,13.813c-39.138,5.756 -68.876,8.634 -89.213,8.634c-47.964,-0 -71.946,-23.598 -71.946,-70.795l0,-209.506c0,-47.964 24.75,-71.946 74.248,-71.946l141.235,-0c20.222,-0 36.616,-16.393 36.616,-36.616c-0,-18.76 -0,-41.54 -0,-60.3c-0,-20.222 -16.394,-36.616 -36.616,-36.616c-16.61,0 -36.208,0 -52.818,0c-20.222,0 -36.615,16.394 -36.615,36.616c-0,3.204 -0,6.447 -0,9.65c-0.001,20.223 -16.394,36.616 -36.616,36.616c-14.582,-0 -31.33,-0 -45.911,-0c-9.711,-0 -19.025,-3.858 -25.891,-10.725c-6.867,-6.866 -10.725,-16.18 -10.725,-25.891c0,-31.589 0,-72.166 0,-72.166c0,-47.964 24.75,-71.946 74.248,-71.946l222.745,-0c48.731,-0 73.097,23.982 73.097,71.946l-0,472.761Zm-160.177,-66.849c19.689,-0.719 35.279,-16.889 35.279,-36.591c-0,-25.085 -0,-58.685 -0,-84.061c-0,-20.222 -16.394,-36.615 -36.616,-36.615c-16.61,-0 -36.208,-0 -52.818,-0c-20.222,-0 -36.615,16.393 -36.615,36.615c-0,25.704 -0,59.991 -0,85.99c-0,9.943 4.043,19.459 11.201,26.36c7.158,6.901 16.815,10.595 26.751,10.232c16.77,-0.613 36.369,-1.329 52.818,-1.93Z" style="fill:#6d6d6d;fill-rule:nonzero;"/><path d="M3841.6,893.662c0,6.052 -2.404,11.856 -6.684,16.136c-4.279,4.279 -10.083,6.683 -16.135,6.683c-23.876,0 -61.14,0 -85.015,0c-6.052,0 -11.857,-2.404 -16.136,-6.683c-4.28,-4.28 -6.684,-10.084 -6.684,-16.136c0,-24.243 0,-62.372 0,-86.808c0,-6.139 -2.474,-12.02 -6.863,-16.313c-4.388,-4.293 -10.322,-6.636 -16.46,-6.5c-17.494,0.386 -41.294,0.912 -58.539,1.293c-12.403,0.274 -22.315,10.408 -22.315,22.814c-0,78.911 -0,344.256 -0,423.947c-0,12.603 -10.217,22.82 -22.82,22.82c-24.144,-0 -62.022,-0 -86.166,-0c-12.603,-0 -22.819,-10.217 -22.819,-22.82c-0,-92.977 -0,-442.706 -0,-535.684c-0,-12.603 10.216,-22.819 22.819,-22.819c24.66,-0 63.646,-0 87.694,-0c5.647,-0 11.063,2.243 15.055,6.236c3.993,3.993 6.237,9.409 6.237,15.055c-0,0.003 -0,0.005 -0,0.005c27.243,-4.988 54.295,-9.977 81.155,-14.965c32.615,-5.756 59.859,-8.633 81.73,-8.633c47.964,-0 71.946,23.598 71.946,70.794l0,151.578Z" style="fill:#6d6d6d;fill-rule:nonzero;"/><path d="M4301.48,1242.21c0,3.368 -1.338,6.599 -3.72,8.981c-2.382,2.382 -5.612,3.72 -8.981,3.72c-25.088,-0 -80.739,-0 -105.827,-0c-7.015,-0 -12.701,-5.687 -12.701,-12.701c-0,-4.023 -0,-7.444 -0,-7.444c-89.021,15.732 -138.904,23.598 -149.648,23.598c-32.999,0 -58.899,-9.689 -77.701,-29.066c-18.802,-19.378 -28.203,-45.758 -28.203,-79.141l0,-359.729c0,-47.197 16.883,-80.004 50.65,-98.422c24.558,-13.814 61.778,-20.72 111.66,-20.72c11.128,-0 27.244,0.383 48.348,1.151c21.104,0.767 36.069,1.151 44.894,1.151c-0,-0 -0,-247.361 -0,-306.739c-0,-3.369 1.338,-6.599 3.72,-8.981c2.382,-2.382 5.612,-3.72 8.981,-3.72c25.088,0 80.739,0 105.827,0c3.369,0 6.599,1.338 8.981,3.72c2.382,2.382 3.72,5.612 3.72,8.981c0,101.101 0,774.259 0,875.361Zm-131.229,-100.686l-0,-358.003l-81.155,0c-29.162,0 -43.743,14.581 -43.743,43.743l-0,277.999c-0,28.395 13.813,42.592 41.441,42.592c6.523,0 34.342,-2.11 83.457,-6.331Z" style="fill:#6d6d6d;fill-rule:nonzero;"/><path d="M4757.91,1233.99c-0,11.558 -9.37,20.928 -20.927,20.928c-62.822,-0 -249.298,-0 -312.12,-0c-11.557,-0 -20.927,-9.37 -20.927,-20.928c0,-121.71 0,-737.197 0,-858.908c0,-11.557 9.37,-20.927 20.928,-20.927c25.278,0 67.549,0 92.828,0c11.557,0 20.927,9.37 20.927,20.927c-0,110.777 -0,627.839 -0,738.615c-0,5.55 2.205,10.873 6.129,14.798c3.925,3.924 9.248,6.129 14.798,6.129c41.879,0 135.558,0 177.437,0c5.55,0 10.873,2.205 14.797,6.13c3.925,3.924 6.13,9.247 6.13,14.798c-0,22.006 -0,56.432 -0,78.438Z" style="fill:#6d6d6d;fill-rule:nonzero;"/><path d="M5214.33,1182.97c-0,47.964 -24.366,71.946 -73.097,71.946l-235.983,-0c-49.499,-0 -74.248,-23.982 -74.248,-71.946l-0,-437.431c-0,-47.964 24.749,-71.946 74.248,-71.946l235.983,-0c48.731,-0 73.097,23.982 73.097,71.946l-0,437.431Zm-145.304,-37.412c9.044,-0 16.377,-7.332 16.377,-16.377c-0,-60.227 -0,-269.051 -0,-329.278c-0,-9.045 -7.333,-16.377 -16.377,-16.377c-23.933,0 -68.211,0 -92.144,0c-9.045,0 -16.377,7.332 -16.377,16.377c-0,60.227 -0,269.051 -0,329.278c-0,9.045 7.332,16.377 16.377,16.377c23.933,-0 68.211,-0 92.144,-0Z" style="fill:#6d6d6d;fill-rule:nonzero;"/><path d="M5675.94,886.259c-0,16.691 -13.531,30.222 -30.223,30.222c-21.088,0 -49.12,0 -70.209,0c-8.015,0 -15.703,-3.184 -21.37,-8.852c-5.668,-5.668 -8.852,-13.355 -8.852,-21.37c-0,-21.472 -0,-50.214 -0,-71.836c-0,-8.131 -3.277,-15.92 -9.089,-21.605c-5.813,-5.686 -13.672,-8.79 -21.801,-8.61c-13.83,0.305 -30.064,0.664 -43.733,0.966c-16.427,0.363 -29.555,13.784 -29.555,30.215l0,409.303c0,8.016 -3.184,15.703 -8.852,21.371c-5.667,5.668 -13.355,8.852 -21.37,8.852l-71.361,-0c-16.691,-0 -30.222,-13.531 -30.222,-30.223l0,-520.878c0,-16.691 13.531,-30.222 30.222,-30.222c24.541,-0 58.531,-0 80.291,-0c5.647,-0 11.063,2.243 15.056,6.236c3.993,3.993 6.236,9.409 6.236,15.055c0,0.003 0,0.005 0,0.005c27.244,-4.988 54.295,-9.977 81.155,-14.965c32.616,-5.756 59.859,-8.633 81.731,-8.633c47.964,-0 71.946,23.598 71.946,70.794l-0,144.175Z" style="fill:#6d6d6d;fill-rule:nonzero;"/><path d="M6126.03,1182.97c0,47.964 -24.749,71.946 -74.248,71.946l-227.349,-0c-49.499,-0 -74.248,-23.982 -74.248,-71.946l-0,-437.431c-0,-47.964 24.749,-71.946 74.248,-71.946l227.349,-0c49.499,-0 74.248,23.982 74.248,71.946l0,213.535l-36.261,36.261l-183.313,-0c-8.015,-0 -15.702,3.184 -21.37,8.852c-5.668,5.667 -8.852,13.355 -8.852,21.37c-0,29.214 -0,73.227 -0,102.441c-0,16.691 13.531,30.222 30.222,30.222c19.239,0 44.064,0 63.303,0c16.691,0 30.222,-13.531 30.222,-30.222c-0,-11.546 -0,-24.705 -0,-36.251c-0,-8.015 3.184,-15.702 8.852,-21.37c5.668,-5.668 13.355,-8.852 21.37,-8.852c19.86,0 45.745,0 65.605,0c8.015,0 15.702,3.184 21.37,8.852c5.668,5.668 8.852,13.355 8.852,21.37c0,35.969 0,91.223 0,91.223Zm-156.271,-273.395c16.691,0 30.222,-13.531 30.222,-30.222c-0,-23.344 -0,-55.499 -0,-78.843c-0,-16.691 -13.531,-30.222 -30.222,-30.222c-19.239,0 -44.064,0 -63.303,0c-16.691,0 -30.222,13.531 -30.222,30.222c-0,23.344 -0,55.499 -0,78.843c-0,16.691 13.531,30.222 30.222,30.222c19.239,0 44.064,0 63.303,0Z" style="fill:#6d6d6d;fill-rule:nonzero;"/><path d="M3142.8,1727.64c-0,25.361 -6.57,48.148 -19.71,68.36c-13.139,20.213 -32.369,36.039 -57.689,47.48c-25.32,11.441 -55.34,17.162 -90.059,17.162c-41.625,-0 -75.96,-7.818 -103.007,-23.454c-19.182,-11.25 -34.767,-26.267 -46.756,-45.049c-11.988,-18.782 -17.983,-37.04 -17.983,-54.774c0,-10.297 3.597,-19.116 10.79,-26.457c7.193,-7.342 16.353,-11.012 27.478,-11.012c9.016,-0 16.64,2.86 22.875,8.581c6.234,5.72 11.557,14.205 15.968,25.456c5.371,13.348 11.174,24.503 17.408,33.465c6.234,8.962 15.01,16.351 26.327,22.167c11.318,5.816 26.183,8.723 44.598,8.723c25.32,0 45.893,-5.863 61.718,-17.59c15.825,-11.727 23.737,-26.362 23.737,-43.905c0,-13.92 -4.268,-25.218 -12.803,-33.894c-8.536,-8.676 -19.566,-15.302 -33.089,-19.879c-13.523,-4.576 -31.602,-9.438 -54.237,-14.587c-30.307,-7.055 -55.675,-15.302 -76.104,-24.741c-20.429,-9.439 -36.638,-22.31 -48.626,-38.613c-11.989,-16.304 -17.983,-36.564 -17.983,-60.781c-0,-23.073 6.33,-43.571 18.99,-61.495c12.66,-17.924 30.979,-31.701 54.956,-41.331c23.977,-9.629 52.175,-14.444 84.592,-14.444c25.896,-0 48.29,3.194 67.185,9.582c18.894,6.388 34.575,14.873 47.043,25.456c12.468,10.583 21.58,21.69 27.334,33.322c5.755,11.632 8.632,22.977 8.632,34.037c0,10.106 -3.596,19.211 -10.79,27.315c-7.193,8.104 -16.16,12.156 -26.902,12.156c-9.783,0 -17.216,-2.431 -22.299,-7.293c-5.083,-4.863 -10.598,-12.824 -16.545,-23.883c-7.672,-15.827 -16.88,-28.174 -27.621,-37.041c-10.742,-8.866 -28.006,-13.3 -51.792,-13.3c-22.059,0 -39.85,4.815 -53.373,14.444c-13.523,9.63 -20.285,21.214 -20.285,34.753c-0,8.39 2.302,15.636 6.905,21.737c4.604,6.102 10.934,11.346 18.991,15.732c8.056,4.386 16.208,7.818 24.456,10.297c8.249,2.479 21.868,6.102 40.858,10.869c23.785,5.529 45.317,11.631 64.595,18.305c19.278,6.674 35.678,14.778 49.201,24.312c13.524,9.535 24.074,21.595 31.651,36.183c7.576,14.587 11.365,32.463 11.365,53.629Z" style="fill:#6d6d6d;fill-rule:nonzero;"/><path d="M3636.54,1504.26l-93.224,-0l-0,304.616c-0,17.543 -3.933,30.557 -11.797,39.043c-7.865,8.485 -18.031,12.728 -30.499,12.728c-12.66,-0 -22.971,-4.29 -30.931,-12.871c-7.961,-8.581 -11.941,-21.547 -11.941,-38.9l0,-304.616l-93.224,-0c-14.578,-0 -25.416,-3.194 -32.513,-9.582c-7.097,-6.388 -10.646,-14.826 -10.646,-25.313c-0,-10.869 3.692,-19.45 11.077,-25.743c7.385,-6.292 18.079,-9.438 32.082,-9.438l271.616,-0c14.77,-0 25.751,3.241 32.945,9.724c7.193,6.484 10.789,14.969 10.789,25.457c0,10.487 -3.644,18.925 -10.933,25.313c-7.289,6.388 -18.223,9.582 -32.801,9.582Z" style="fill:#6d6d6d;fill-rule:nonzero;"/><path d="M3878.81,1680.16l-0,-201.648c-0,-17.161 3.884,-30.032 11.653,-38.613c7.769,-8.581 17.983,-12.871 30.643,-12.871c13.236,-0 23.738,4.29 31.506,12.871c7.769,8.581 11.653,21.452 11.653,38.613l0,206.224c0,23.455 2.638,43.047 7.913,58.779c5.275,15.731 14.626,27.935 28.053,36.611c13.428,8.676 32.226,13.014 56.395,13.014c33.377,0 56.97,-8.819 70.781,-26.457c13.811,-17.639 20.717,-44.382 20.717,-80.23l-0,-207.941c-0,-17.352 3.836,-30.271 11.509,-38.756c7.673,-8.485 17.935,-12.728 30.787,-12.728c12.852,-0 23.258,4.243 31.218,12.728c7.961,8.485 11.941,21.404 11.941,38.756l0,201.648c0,32.798 -3.213,60.161 -9.639,82.089c-6.426,21.929 -18.558,41.188 -36.397,57.777c-15.346,14.111 -33.185,24.408 -53.518,30.891c-20.333,6.483 -44.118,9.725 -71.357,9.725c-32.417,-0 -60.327,-3.48 -83.729,-10.44c-23.401,-6.96 -42.487,-17.734 -57.257,-32.321c-14.771,-14.587 -25.608,-33.274 -32.514,-56.061c-6.905,-22.786 -10.358,-50.006 -10.358,-81.66Z" style="fill:#6d6d6d;fill-rule:nonzero;"/><path d="M4526.2,1434.18l111.351,-0c28.964,-0 53.805,2.669 74.521,8.008c20.717,5.339 39.515,15.35 56.395,30.033c43.927,37.374 65.89,94.197 65.89,170.471c-0,25.17 -2.206,48.147 -6.618,68.932c-4.412,20.784 -11.221,39.519 -20.429,56.204c-9.207,16.685 -21.004,31.606 -35.39,44.763c-11.317,10.106 -23.69,18.21 -37.117,24.312c-13.427,6.102 -27.862,10.392 -43.303,12.871c-15.442,2.479 -32.849,3.718 -52.223,3.718l-111.351,0c-15.537,0 -27.238,-2.336 -35.103,-7.007c-7.864,-4.672 -12.995,-11.251 -15.393,-19.736c-2.398,-8.485 -3.597,-19.497 -3.597,-33.036l0,-307.477c0,-18.306 4.124,-31.558 12.373,-39.757c8.248,-8.2 21.579,-12.299 39.994,-12.299Zm33.089,67.215l-0,284.595l64.738,0c14.195,0 25.321,-0.381 33.377,-1.144c8.056,-0.762 16.4,-2.669 25.032,-5.72c8.632,-3.051 16.113,-7.342 22.443,-12.871c28.581,-24.026 42.872,-65.405 42.872,-124.135c-0,-41.379 -6.282,-72.365 -18.847,-92.958c-12.564,-20.594 -28.053,-33.704 -46.468,-39.329c-18.414,-5.625 -40.665,-8.438 -66.753,-8.438l-56.394,0Z" style="fill:#6d6d6d;fill-rule:nonzero;"/><path d="M5060.22,1808.87l-0,-330.359c-0,-17.161 3.932,-30.032 11.797,-38.613c7.864,-8.581 18.03,-12.871 30.499,-12.871c12.852,-0 23.258,4.243 31.218,12.728c7.961,8.485 11.941,21.404 11.941,38.756l-0,330.359c-0,17.353 -3.98,30.319 -11.941,38.9c-7.96,8.581 -18.366,12.871 -31.218,12.871c-12.277,-0 -22.395,-4.338 -30.356,-13.014c-7.96,-8.676 -11.94,-21.595 -11.94,-38.757Z" style="fill:#6d6d6d;fill-rule:nonzero;"/><path d="M5574.1,1427.03c43.735,-0 81.284,8.819 112.646,26.457c31.363,17.638 55.1,42.713 71.213,75.225c16.113,32.511 24.169,70.696 24.169,114.553c0,32.416 -4.412,61.877 -13.235,88.382c-8.824,26.505 -22.06,49.482 -39.707,68.932c-17.647,19.449 -39.323,34.323 -65.027,44.62c-25.703,10.296 -55.147,15.445 -88.332,15.445c-32.993,-0 -62.533,-5.292 -88.62,-15.874c-26.088,-10.583 -47.859,-25.504 -65.315,-44.763c-17.455,-19.259 -30.643,-42.427 -39.562,-69.504c-8.92,-27.078 -13.38,-56.347 -13.38,-87.81c0,-32.226 4.652,-61.782 13.955,-88.668c9.303,-26.886 22.778,-49.768 40.426,-68.646c17.647,-18.878 39.131,-33.322 64.451,-43.333c25.32,-10.011 54.093,-15.016 86.318,-15.016Zm121.422,215.663c-0,-30.7 -4.987,-57.301 -14.962,-79.801c-9.975,-22.501 -24.217,-39.519 -42.728,-51.056c-18.51,-11.536 -39.754,-17.304 -63.732,-17.304c-17.071,-0 -32.848,3.194 -47.331,9.582c-14.482,6.388 -26.95,15.683 -37.405,27.887c-10.454,12.204 -18.702,27.792 -24.744,46.765c-6.042,18.973 -9.064,40.282 -9.064,63.927c0,23.835 3.022,45.382 9.064,64.641c6.042,19.26 14.578,35.229 25.608,47.91c11.029,12.68 23.689,22.167 37.98,28.459c14.29,6.293 29.972,9.439 47.043,9.439c21.868,0 41.961,-5.434 60.28,-16.303c18.318,-10.869 32.896,-27.65 43.734,-50.341c10.838,-22.691 16.257,-50.626 16.257,-83.805Z" style="fill:#6d6d6d;fill-rule:nonzero;"/><circle cx="5023.28" cy="976.32" r="57.035" style="fill:#7851d2;"/><circle cx="4321.16" cy="1564.27" r="33.285" style="fill:#fff;"/><path d="M5938.4,776.175l11.894,1.203l11.144,3.463l10.057,5.46l8.73,7.204l7.204,8.731l5.461,10.057l3.462,11.144l1.203,11.893l-1.203,11.893l-3.462,11.145l-5.461,10.057l-7.204,8.73l-8.73,7.204l-10.057,5.46l-11.144,3.463l-11.894,1.203l-11.893,-1.203l-11.144,-3.463l-10.057,-5.46l-8.73,-7.204l-7.204,-8.73l-5.461,-10.057l-3.462,-11.145l-1.203,-11.893l1.203,-11.893l3.462,-11.144l5.461,-10.057l7.204,-8.731l8.73,-7.204l10.057,-5.46l11.144,-3.463l11.893,-1.203Zm0,30.085c-16.044,0 -29.07,13.026 -29.07,29.07c0,16.044 13.026,29.07 29.07,29.07c16.045,0 29.07,-13.026 29.07,-29.07c0,-16.044 -13.025,-29.07 -29.07,-29.07Z" style="fill:#fff;"/><circle cx="5938.4" cy="835.33" r="29.07" style="fill:#7851d2;"/><circle cx="6105.46" cy="697.421" r="40.879" style="fill:#6d6d6d;"/><circle cx="5997.41" cy="911.074" r="15.484" style="fill:#fff;"/><path d="M6188.37,973.408l-44.624,39.197l44.624,44.624" style="fill:none;stroke:#6d6d6d;stroke-width:25.42px;"/></svg>