<?xml version="1.0" encoding="UTF-8" standalone="no"?><!DOCTYPE svg PUBLIC "-//W3C//DTD SVG 1.1//EN" "http://www.w3.org/Graphics/SVG/1.1/DTD/svg11.dtd"><svg width="100%" height="100%" viewBox="0 0 2294 2050" version="1.1" xmlns="http://www.w3.org/2000/svg" xmlns:xlink="http://www.w3.org/1999/xlink" xml:space="preserve" xmlns:serif="http://www.serif.com/" style="fill-rule:evenodd;clip-rule:evenodd;stroke-linejoin:round;stroke-miterlimit:2;"><circle cx="1182.49" cy="930.322" r="930.322" style="fill:#6d6d6d;"/><circle cx="590.964" cy="1693.72" r="338.8" style="fill:#6d6d6d;"/><circle cx="1330.01" cy="1710.9" r="338.8" style="fill:#6d6d6d;"/><path d="M1954.47,1349.19c18.235,-0 36.136,1.443 53.594,4.223c-11.344,23.823 -130.2,201.782 -135.494,204.419c300.232,256.496 220.604,244.208 404.441,26.25c10.556,32.748 16.259,67.667 16.259,103.907c-0,186.989 -151.812,338.8 -338.8,338.8c-186.989,0 -338.8,-151.811 -338.8,-338.8c0,-186.988 151.811,-338.799 338.8,-338.799Z" style="fill:#6d6d6d;"/><path d="M2126.39,1334.77l149.483,120.541c12.453,10.042 14.41,28.306 4.368,40.759l-136.561,169.349c-10.042,12.453 -28.306,14.411 -40.759,4.369l-149.482,-120.541c-12.453,-10.042 -14.411,-28.306 -4.369,-40.759l136.562,-169.349c10.042,-12.453 28.305,-14.411 40.758,-4.369Z" style="fill:#7851d2;"/><circle cx="1205.41" cy="1174.27" r="111.074" style="fill:#fff;"/><circle cx="996.939" cy="827.845" r="372.387" style="fill:#fff;"/><circle cx="925.287" cy="823.368" r="105.674" style="fill:#6d6d6d;"/><circle cx="870.02" cy="873.775" r="50.407" style="fill:#fff;"/><circle cx="142.827" cy="1883.96" r="142.827" style="fill:#6d6d6d;"/><circle cx="1775.59" cy="199.638" r="142.827" style="fill:#6d6d6d;"/></svg>